<svg width="16" height="16" viewBox="0 0 16 16" fill="none" xmlns="http://www.w3.org/2000/svg">
<g clip-path="url(#clip0_3152_36644)">
<path d="M0.82067 10.8719C0.367563 10.8719 0.000244141 10.5049 0.000244141 10.0515V5.94933C0.000244141 5.49623 0.367563 5.12891 0.82067 5.12891C1.27378 5.12891 1.6411 5.49623 1.6411 5.94933V10.0515C1.6411 10.5039 1.27378 10.8719 0.82067 10.8719Z" fill="white" fill-opacity="0.81"/>
<path d="M3.21422 12.9226C2.76112 12.9226 2.3938 12.5553 2.3938 12.1022V3.8966C2.3938 3.44349 2.76112 3.07617 3.21422 3.07617C3.66733 3.07617 4.03465 3.44349 4.03465 3.8966V12.1022C4.03499 12.5553 3.66733 12.9226 3.21422 12.9226Z" fill="white" fill-opacity="0.81"/>
<path d="M5.6068 11.8979C5.1537 11.8979 4.78638 11.5306 4.78638 11.0775V4.92394C4.78638 4.47083 5.1537 4.10352 5.6068 4.10352C6.05991 4.10352 6.42757 4.47083 6.42757 4.92394V11.0775C6.42723 11.5306 6.05991 11.8979 5.6068 11.8979Z" fill="white" fill-opacity="0.81"/>
<path d="M8.00036 13.9483C7.54725 13.9483 7.17993 13.5813 7.17993 13.1279V2.87121C7.17993 2.4181 7.54725 2.05078 8.00036 2.05078C8.45346 2.05078 8.82078 2.4181 8.82078 2.87121V13.1275C8.82078 13.581 8.45346 13.9483 8.00036 13.9483Z" fill="white" fill-opacity="0.81"/>
<path d="M10.3932 16C9.94041 16 9.57275 15.6327 9.57275 15.1796V0.820426C9.57275 0.367319 9.94041 0 10.3932 0C10.8466 0 11.2136 0.367319 11.2136 0.820426V15.1796C11.2136 15.6327 10.8466 16 10.3932 16Z" fill="white" fill-opacity="0.81"/>
<path d="M12.7865 12.9226C12.333 12.9226 11.9661 12.5553 11.9661 12.1022V3.8966C11.9661 3.44349 12.333 3.07617 12.7865 3.07617C13.2393 3.07617 13.6069 3.44349 13.6069 3.8966V12.1022C13.6069 12.5553 13.2393 12.9226 12.7865 12.9226Z" fill="white" fill-opacity="0.81"/>
<path d="M15.1798 9.84621C14.7267 9.84621 14.3594 9.47889 14.3594 9.02613V6.97472C14.3594 6.52162 14.7267 6.1543 15.1798 6.1543C15.6329 6.1543 16.0002 6.52162 16.0002 6.97472V9.02613C16.0002 9.47889 15.6329 9.84621 15.1798 9.84621Z" fill="white" fill-opacity="0.81"/>
</g>
<defs>
<clipPath id="clip0_3152_36644">
<rect width="16" height="16" fill="white" transform="translate(0.000244141)"/>
</clipPath>
</defs>
</svg>
