<svg width="16" height="16" viewBox="0 0 16 16" fill="none" xmlns="http://www.w3.org/2000/svg">
<path d="M8.00012 0C3.58817 0 0.000130033 3.58803 0.00012207 8C0.00011814 12.412 3.58816 16 8.00012 16C12.4121 16 16.0001 12.412 16.0001 8C16.0001 3.58803 12.4121 5.33333e-08 8.00012 0ZM7.99283 2.12188C8.06454 2.12061 8.13576 2.13381 8.20225 2.16071C8.26873 2.1876 8.32911 2.22762 8.37978 2.27838C8.43044 2.32914 8.47035 2.3896 8.49711 2.45613C8.52387 2.52267 8.53694 2.59392 8.53554 2.66563V7.46458H12.2678C12.3389 7.46299 12.4095 7.4756 12.4756 7.50169C12.5417 7.52778 12.602 7.56681 12.6528 7.61649C12.7036 7.66617 12.7439 7.7255 12.7715 7.79101C12.7991 7.85651 12.8133 7.92685 12.8133 7.99792C12.8133 8.06898 12.7991 8.13933 12.7715 8.20483C12.7439 8.27033 12.7036 8.32966 12.6528 8.37935C12.602 8.42903 12.5417 8.46806 12.4756 8.49414C12.4095 8.52023 12.3389 8.53285 12.2678 8.53125H8.00012C7.8594 8.53069 7.7246 8.47454 7.62509 8.37503C7.52559 8.27552 7.46944 8.14072 7.46887 8V2.66563C7.4675 2.5955 7.47997 2.52579 7.50557 2.46049C7.53117 2.39519 7.5694 2.33558 7.61807 2.28507C7.66674 2.23457 7.72489 2.19415 7.7892 2.16615C7.8535 2.13815 7.9227 2.1231 7.99283 2.12188Z" fill="white" fill-opacity="0.81"/>
</svg>
