<svg width="36" height="36" viewBox="0 0 36 36" fill="none" xmlns="http://www.w3.org/2000/svg">
<circle cx="18" cy="18" r="18" fill="#555555"/>
<path d="M23.2061 10.6913C23.5879 10.3095 24.207 10.3095 24.5888 10.6913L24.9341 11.0366C25.3159 11.4184 25.3159 12.0375 24.9341 12.4193L12.4199 24.9334C12.0381 25.3153 11.419 25.3153 11.0372 24.9334L10.692 24.5882C10.3101 24.2064 10.3101 23.5873 10.692 23.2055L23.2061 10.6913Z" fill="white"/>
<path d="M24.9335 23.2051C25.3153 23.587 25.3153 24.206 24.9335 24.5878L24.5882 24.9331C24.2064 25.3149 23.5873 25.3149 23.2055 24.9331L10.6914 12.4189C10.3095 12.0371 10.3095 11.4181 10.6914 11.0362L11.0366 10.691C11.4184 10.3092 12.0375 10.3092 12.4193 10.691L24.9335 23.2051Z" fill="white"/>
</svg>
