<svg width="40" height="41" viewBox="0 0 40 41" fill="none" xmlns="http://www.w3.org/2000/svg">
<rect y="0.25" width="40" height="40" rx="20" fill="#212529"/>
<g clip-path="url(#clip0_2103_4472)">
<g clip-path="url(#clip1_2103_4472)">
<path d="M20.0013 11.916C22.2655 11.916 22.548 11.9244 23.4363 11.966C24.3238 12.0077 24.928 12.1469 25.4597 12.3535C26.0097 12.5652 26.473 12.8519 26.9363 13.3144C27.3601 13.7309 27.688 14.2348 27.8972 14.791C28.103 15.3219 28.243 15.9269 28.2847 16.8144C28.3238 17.7027 28.3347 17.9852 28.3347 20.2493C28.3347 22.5135 28.3263 22.796 28.2847 23.6843C28.243 24.5718 28.103 25.176 27.8972 25.7077C27.6886 26.2641 27.3606 26.7682 26.9363 27.1843C26.5196 27.6079 26.0158 27.9358 25.4597 28.1452C24.9288 28.351 24.3238 28.491 23.4363 28.5327C22.548 28.5718 22.2655 28.5827 20.0013 28.5827C17.7371 28.5827 17.4546 28.5743 16.5663 28.5327C15.6788 28.491 15.0746 28.351 14.543 28.1452C13.9866 27.9364 13.4826 27.6084 13.0663 27.1843C12.6425 26.7678 12.3146 26.2639 12.1055 25.7077C11.8988 25.1768 11.7596 24.5718 11.718 23.6843C11.6788 22.796 11.668 22.5135 11.668 20.2493C11.668 17.9852 11.6763 17.7027 11.718 16.8144C11.7596 15.926 11.8988 15.3227 12.1055 14.791C12.314 14.2345 12.642 13.7305 13.0663 13.3144C13.4827 12.8904 13.9867 12.5625 14.543 12.3535C15.0746 12.1469 15.678 12.0077 16.5663 11.966C17.4546 11.9269 17.7371 11.916 20.0013 11.916ZM20.0013 16.0827C18.8962 16.0827 17.8364 16.5217 17.055 17.3031C16.2736 18.0845 15.8346 19.1443 15.8346 20.2493C15.8346 21.3544 16.2736 22.4142 17.055 23.1956C17.8364 23.977 18.8962 24.416 20.0013 24.416C21.1064 24.416 22.1662 23.977 22.9476 23.1956C23.729 22.4142 24.168 21.3544 24.168 20.2493C24.168 19.1443 23.729 18.0845 22.9476 17.3031C22.1662 16.5217 21.1064 16.0827 20.0013 16.0827ZM25.418 15.8744C25.418 15.5981 25.3082 15.3331 25.1129 15.1378C24.9175 14.9424 24.6526 14.8327 24.3763 14.8327C24.1001 14.8327 23.8351 14.9424 23.6398 15.1378C23.4444 15.3331 23.3347 15.5981 23.3347 15.8744C23.3347 16.1506 23.4444 16.4156 23.6398 16.6109C23.8351 16.8063 24.1001 16.916 24.3763 16.916C24.6526 16.916 24.9175 16.8063 25.1129 16.6109C25.3082 16.4156 25.418 16.1506 25.418 15.8744ZM20.0013 17.7494C20.6644 17.7494 21.3003 18.0127 21.7691 18.4816C22.2379 18.9504 22.5013 19.5863 22.5013 20.2493C22.5013 20.9124 22.2379 21.5483 21.7691 22.0171C21.3003 22.4859 20.6644 22.7493 20.0013 22.7493C19.3383 22.7493 18.7024 22.4859 18.2335 22.0171C17.7647 21.5483 17.5013 20.9124 17.5013 20.2493C17.5013 19.5863 17.7647 18.9504 18.2335 18.4816C18.7024 18.0127 19.3383 17.7494 20.0013 17.7494Z" fill="#F4F4F4"/>
</g>
</g>
<defs>
<clipPath id="clip0_2103_4472">
<rect width="20" height="20" fill="white" transform="translate(10 10.25)"/>
</clipPath>
<clipPath id="clip1_2103_4472">
<rect width="20" height="20" fill="white" transform="translate(10 10.25)"/>
</clipPath>
</defs>
</svg>
