<svg width="19" height="19" viewBox="0 0 19 19" fill="none" xmlns="http://www.w3.org/2000/svg">
<path opacity="0.5" d="M18.8458 13.2399C18.689 12.9833 18.2478 12.5841 17.1499 12.7742C16.5421 12.8788 15.9245 12.9263 15.3069 12.8978C13.0227 12.8027 10.9542 11.7857 9.51312 10.2173C8.23869 8.83912 7.45446 7.04265 7.44465 5.10362C7.44465 4.02004 7.6603 2.97449 8.10145 1.98597C8.53279 1.02596 8.22889 0.522192 8.01322 0.313081C7.78774 0.094465 7.25839 -0.209696 6.21924 0.208525C2.2097 1.84339 -0.270527 5.74046 0.0235712 9.91319C0.31767 13.8388 3.16062 17.194 6.92508 18.4582C7.82695 18.7624 8.77787 18.943 9.7582 18.981C9.91505 18.9905 10.0719 19 10.2288 19C13.5129 19 16.5911 17.4982 18.5321 14.9413C19.189 14.0574 19.0125 13.4966 18.8458 13.2399Z" fill="white"/>
</svg>
