<svg width="14" height="15" viewBox="0 0 14 15" fill="none" xmlns="http://www.w3.org/2000/svg">
<path d="M10.7287 4.80554C10.7164 4.62651 10.4928 4.55298 10.3767 4.68979L2.06539 14.481C1.69235 14.9205 1.03029 14.9657 0.600919 14.5811L0.412607 14.4124C-0.00879615 14.0349 -0.0443916 13.3873 0.333101 12.9659L8.78589 3.52988C8.90478 3.39716 8.80386 3.18696 8.62594 3.19674L1.30946 3.59886C0.744558 3.62991 0.261443 3.19713 0.230396 2.63223L0.215001 2.35213C0.183954 1.78723 0.616729 1.30412 1.18163 1.27307L11.9277 0.682452C12.4926 0.651405 12.9758 1.08418 13.0068 1.64908L13.5974 12.3952C13.6285 12.9601 13.1957 13.4432 12.6308 13.4743L12.3369 13.4904C11.7774 13.5212 11.2971 13.0967 11.2587 12.5376L10.7287 4.80554Z" fill="white"/>
</svg>
