<svg width="22" height="23" viewBox="0 0 22 23" fill="none" xmlns="http://www.w3.org/2000/svg">
<path d="M19.7749 9.67255H12.586V2.48369C12.586 2.04191 12.4106 1.61823 12.0982 1.30584C11.7858 0.993458 11.3621 0.817961 10.9203 0.817961C10.4785 0.817961 10.0549 0.993458 9.74247 1.30584C9.43008 1.61823 9.25459 2.04191 9.25459 2.48369V9.67255H2.06572C1.62394 9.67255 1.20026 9.84805 0.887874 10.1604C0.575489 10.4728 0.399992 10.8965 0.399992 11.3383C0.399992 11.7801 0.575489 12.2038 0.887874 12.5161C1.20026 12.8285 1.62394 13.004 2.06572 13.004H9.25459V20.1929C9.25459 20.6347 9.43008 21.0583 9.74247 21.3707C10.0549 21.6831 10.4785 21.8586 10.9203 21.8586C11.3621 21.8586 11.7858 21.6831 12.0982 21.3707C12.4106 21.0583 12.586 20.6347 12.586 20.1929V13.004H19.7749C20.2167 13.004 20.6404 12.8285 20.9528 12.5161C21.2651 12.2038 21.4406 11.7801 21.4406 11.3383C21.4406 10.8965 21.2651 10.4728 20.9528 10.1604C20.6404 9.84805 20.2167 9.67255 19.7749 9.67255Z" fill="white" stroke="white" stroke-width="0.801578"/>
</svg>
