<svg width="19" height="19" viewBox="0 0 19 19" fill="none" xmlns="http://www.w3.org/2000/svg">
<g opacity="0.5">
<path d="M15.4815 9.5C15.4815 10.683 15.1307 11.8395 14.4734 12.8231C13.8162 13.8068 12.882 14.5734 11.789 15.0262C10.696 15.4789 9.49336 15.5973 8.33307 15.3665C7.17278 15.1358 6.10698 14.5661 5.27045 13.7295C4.43393 12.893 3.86425 11.8272 3.63345 10.6669C3.40265 9.50664 3.52111 8.30396 3.97383 7.21099C4.42656 6.11801 5.19322 5.18383 6.17687 4.52658C7.16052 3.86933 8.31697 3.51852 9.5 3.51852C11.0858 3.52032 12.6062 4.15109 13.7276 5.27244C14.8489 6.3938 15.4797 7.91416 15.4815 9.5ZM9.5 2.11111C9.59241 2.11111 9.68392 2.09291 9.7693 2.05755C9.85467 2.02218 9.93225 1.97035 9.9976 1.905C10.0629 1.83966 10.1148 1.76208 10.1501 1.6767C10.1855 1.59133 10.2037 1.49982 10.2037 1.40741V0.703704C10.2037 0.51707 10.1296 0.33808 9.99759 0.20611C9.86562 0.07414 9.68663 0 9.5 0C9.31337 0 9.13438 0.07414 9.00241 0.20611C8.87044 0.33808 8.7963 0.51707 8.7963 0.703704V1.40741C8.7963 1.49982 8.8145 1.59133 8.84986 1.6767C8.88523 1.76208 8.93706 1.83966 9.0024 1.905C9.06775 1.97035 9.14533 2.02218 9.2307 2.05755C9.31608 2.09291 9.40759 2.11111 9.5 2.11111ZM3.28006 4.27526C3.34536 4.34078 3.42295 4.39277 3.50837 4.42827C3.59379 4.46377 3.68537 4.48208 3.77787 4.48215C3.87037 4.48223 3.96198 4.46406 4.04746 4.4287C4.13294 4.39333 4.2106 4.34146 4.27601 4.27605C4.34142 4.21065 4.3933 4.13298 4.42866 4.04751C4.46403 3.96203 4.4822 3.87043 4.48213 3.77792C4.48206 3.68542 4.46376 3.59384 4.42826 3.50842C4.39276 3.42299 4.34077 3.34541 4.27526 3.2801L3.77768 2.78249C3.71238 2.71696 3.6348 2.66494 3.54937 2.62942C3.46394 2.5939 3.37235 2.57558 3.27984 2.5755C3.18732 2.57541 3.0957 2.59358 3.01021 2.62894C2.92472 2.66431 2.84704 2.71618 2.78163 2.7816C2.71621 2.84702 2.66433 2.9247 2.62896 3.01019C2.5936 3.09567 2.57544 3.1873 2.57552 3.27981C2.5756 3.37233 2.59393 3.46392 2.62945 3.54935C2.66497 3.63477 2.71698 3.71236 2.78252 3.77766L3.28006 4.27526ZM1.40741 8.7963H0.703704C0.51707 8.7963 0.33808 8.87044 0.20611 9.00241C0.07414 9.13438 0 9.31337 0 9.5C0 9.68663 0.07414 9.86562 0.20611 9.99759C0.33808 10.1296 0.51707 10.2037 0.703704 10.2037H1.40741C1.59404 10.2037 1.77303 10.1296 1.905 9.99759C2.03697 9.86562 2.11111 9.68663 2.11111 9.5C2.11111 9.31337 2.03697 9.13438 1.905 9.00241C1.77303 8.87044 1.59404 8.7963 1.40741 8.7963ZM3.2801 14.7247L2.78252 15.2223C2.7171 15.2876 2.66521 15.3652 2.62979 15.4506C2.59437 15.536 2.57613 15.6275 2.5761 15.72C2.57607 15.8124 2.59426 15.904 2.62962 15.9894C2.66499 16.0748 2.71683 16.1524 2.7822 16.2178C2.84757 16.2832 2.92518 16.335 3.0106 16.3704C3.09601 16.4057 3.18756 16.4239 3.28001 16.4239C3.37245 16.4239 3.46399 16.4056 3.54938 16.3702C3.63478 16.3348 3.71235 16.2829 3.77768 16.2175L4.27527 15.7199C4.4071 15.5879 4.48112 15.409 4.48106 15.2224C4.481 15.0359 4.40687 14.857 4.27495 14.725C4.14304 14.5931 3.96415 14.519 3.77759 14.5189C3.59104 14.5189 3.4121 14.5929 3.2801 14.7247ZM9.5 16.8889C9.40759 16.8889 9.31608 16.9071 9.2307 16.9424C9.14532 16.9778 9.06775 17.0296 9.0024 17.095C8.93705 17.1603 8.88522 17.2379 8.84986 17.3233C8.81449 17.4087 8.79629 17.5002 8.7963 17.5926V18.2963C8.7963 18.4829 8.87044 18.6619 9.00241 18.7939C9.13438 18.9259 9.31337 19 9.5 19C9.68663 19 9.86562 18.9259 9.99759 18.7939C10.1296 18.6619 10.2037 18.4829 10.2037 18.2963V17.5926C10.2037 17.5002 10.1855 17.4087 10.1501 17.3233C10.1148 17.2379 10.0629 17.1603 9.9976 17.095C9.93225 17.0296 9.85468 16.9778 9.7693 16.9424C9.68392 16.9071 9.59241 16.8889 9.5 16.8889ZM15.7199 14.7247C15.5878 14.5933 15.409 14.5196 15.2227 14.5198C15.0363 14.52 14.8577 14.5942 14.7259 14.7259C14.5942 14.8577 14.52 15.0363 14.5198 15.2227C14.5196 15.409 14.5933 15.5878 14.7247 15.7199L15.2223 16.2175C15.3543 16.3493 15.5333 16.4233 15.7198 16.4233C15.9064 16.4232 16.0853 16.3491 16.2172 16.2172C16.3491 16.0853 16.4232 15.9064 16.4233 15.7198C16.4233 15.5333 16.3493 15.3543 16.2175 15.2223L15.7199 14.7247ZM18.2963 8.7963H17.5926C17.406 8.7963 17.227 8.87044 17.095 9.00241C16.963 9.13438 16.8889 9.31337 16.8889 9.5C16.8889 9.68663 16.963 9.86562 17.095 9.99759C17.227 10.1296 17.406 10.2037 17.5926 10.2037H18.2963C18.4829 10.2037 18.6619 10.1296 18.7939 9.99759C18.9259 9.86562 19 9.68663 19 9.5C19 9.31337 18.9259 9.13438 18.7939 9.00241C18.6619 8.87044 18.4829 8.7963 18.2963 8.7963ZM15.2223 4.48139C15.3148 4.4815 15.4063 4.46335 15.4917 4.42798C15.5771 4.3926 15.6547 4.34071 15.7199 4.27527L16.2175 3.77766C16.2828 3.71232 16.3347 3.63474 16.37 3.54937C16.4054 3.46399 16.4236 3.37249 16.4236 3.28008C16.4236 3.18767 16.4054 3.09616 16.37 3.01079C16.3347 2.92541 16.2828 2.84784 16.2175 2.78249C16.1521 2.71715 16.0746 2.66532 15.9892 2.62995C15.9038 2.59459 15.8123 2.57639 15.7199 2.57639C15.6275 2.57639 15.536 2.59459 15.4506 2.62995C15.3652 2.66532 15.2877 2.71715 15.2223 2.78249L14.7247 3.2801C14.6263 3.37851 14.5593 3.5039 14.5321 3.6404C14.505 3.77691 14.5189 3.9184 14.5722 4.04698C14.6254 4.17557 14.7156 4.28547 14.8314 4.36279C14.9471 4.44012 15.0831 4.48139 15.2223 4.48139Z" fill="white"/>
</g>
</svg>
