<svg width="30" height="26" viewBox="0 0 30 26" fill="none" xmlns="http://www.w3.org/2000/svg">
<path d="M0 7C0 3.13401 3.13401 0 7 0H23C26.866 0 30 3.13401 30 7V19C30 22.866 26.866 26 23 26H7C3.13401 26 0 22.866 0 19V7Z" fill="#2474B9"/>
<path fill-rule="evenodd" clip-rule="evenodd" d="M10.9877 7.15625H13.0052V19.08H10.7043V10.2145C10.5042 10.4206 10.2875 10.5988 10.0541 10.7492C9.82064 10.8997 9.56499 11.025 9.28711 11.1253V8.9862C9.69837 8.75223 10.0471 8.48206 10.3333 8.17566C10.6195 7.86929 10.8377 7.52949 10.9877 7.15625Z" fill="white"/>
<path fill-rule="evenodd" clip-rule="evenodd" d="M20.9051 10.7825V15.4534C20.9051 16.9017 20.6842 17.903 20.2423 18.4573C19.8005 19.0116 19.0211 19.2887 17.904 19.2887C16.7758 19.2887 15.9922 19.0129 15.5531 18.4615C15.1141 17.91 14.8945 16.9073 14.8945 15.4534V10.7825C14.8945 9.32858 15.1141 8.32867 15.5531 7.78274C15.9922 7.23684 16.7758 6.96388 17.904 6.96387C19.0266 6.96387 19.8075 7.23684 20.2465 7.78274C20.6856 8.32867 20.9051 9.32858 20.9051 10.7825ZM18.4959 9.88841C18.4959 9.29237 18.4528 8.89824 18.3667 8.70604C18.2805 8.51388 18.1263 8.41779 17.904 8.41777C17.6817 8.41777 17.5261 8.52224 17.4371 8.73112C17.3482 8.94003 17.3038 9.32578 17.3038 9.88841V16.3391C17.3038 16.9574 17.3468 17.3571 17.433 17.5382C17.5191 17.7192 17.6761 17.8097 17.904 17.8097C18.1207 17.8097 18.2736 17.708 18.3625 17.5047C18.4514 17.3014 18.4959 16.9128 18.4959 16.3391V9.88841Z" fill="white"/>
</svg>
