<svg width="30" height="26" viewBox="0 0 30 26" fill="none" xmlns="http://www.w3.org/2000/svg">
<path d="M0 7C0 3.13401 3.13401 0 7 0H23C26.866 0 30 3.13401 30 7V19C30 22.866 26.866 26 23 26H7C3.13401 26 0 22.866 0 19V7Z" fill="#2E963F"/>
<path d="M8.44039 7L7 19H9.93451L10.1026 16.8431H11.1192C11.1743 17.6853 11.2046 18.1577 11.2596 19H14.1604L12.538 7H8.44039ZM10.607 9.68306C10.7508 11.679 10.894 13.3577 11.0378 14.7162H10.0688C10.1404 13.654 10.3207 11.9759 10.607 9.68306Z" fill="white"/>
<path d="M23 16.2748V18.9023C23 19.005 23.0071 18.9924 22.9184 18.9924H15.5329C15.4383 18.9924 15.4478 19.0023 15.4478 18.8976V12.9985V7.10664C15.4478 6.98537 15.4347 7.00061 15.5436 7.00061C16.321 6.99997 17.0972 6.99997 17.8741 7.00061H17.9096C17.964 7.00195 17.964 7.00195 17.9652 7.06357V7.12785V16.066C17.9652 16.1873 17.9516 16.1714 18.0616 16.1714C19.678 16.1714 21.2932 16.172 22.9089 16.172C23.0119 16.172 22.9994 16.1548 23 16.2748Z" fill="white"/>
</svg>
