<svg width="30" height="26" viewBox="0 0 30 26" fill="none" xmlns="http://www.w3.org/2000/svg">
<path d="M0 7C0 3.13401 3.13401 0 7 0H23C26.866 0 30 3.13401 30 7V19C30 22.866 26.866 26 23 26H7C3.13401 26 0 22.866 0 19V7Z" fill="#C90000"/>
<path fill-rule="evenodd" clip-rule="evenodd" d="M10.6205 6.67578H12.6401V18.5995H10.3367V9.734C10.1364 9.94011 9.91943 10.1184 9.68577 10.2688C9.45209 10.4192 9.19616 10.5445 8.91797 10.6448V8.50569C9.32968 8.27174 9.67881 8.00158 9.96535 7.69519C10.2519 7.38883 10.4702 7.04901 10.6205 6.67578Z" fill="white"/>
<path fill-rule="evenodd" clip-rule="evenodd" d="M18.1019 14.2052C18.1019 13.5924 18.0616 13.1941 17.9809 13.0103C17.9002 12.8264 17.7542 12.7345 17.5427 12.7345C17.3313 12.7345 17.1839 12.839 17.1004 13.0479C17.017 13.2568 16.9753 13.6425 16.9753 14.2052V15.8596C16.9753 16.4724 17.0156 16.8707 17.0963 17.0545C17.1769 17.2383 17.3258 17.3302 17.5427 17.3302C17.7486 17.3302 17.8933 17.2299 17.9767 17.0294C18.0602 16.8289 18.1019 16.4389 18.1019 15.8596V14.2052ZM20.5137 9.4089V9.53424H18.1019V9.4089C18.1019 8.79614 18.0616 8.39788 17.9809 8.21403C17.9002 8.03021 17.7542 7.93829 17.5427 7.93828C17.3313 7.93828 17.1839 8.04413 17.1004 8.25579C17.017 8.46748 16.9753 8.85185 16.9753 9.4089V11.8237C17.1867 11.5452 17.4245 11.3391 17.6888 11.2054C17.9531 11.0717 18.2577 11.0049 18.6026 11.0049C19.2703 11.0049 19.7585 11.2179 20.0673 11.6441C20.376 12.0702 20.5304 12.7512 20.5304 13.6871V14.9739C20.5304 16.4278 20.3121 17.4305 19.8753 17.982C19.4386 18.5335 18.6666 18.8092 17.5594 18.8092C16.4467 18.8092 15.672 18.5349 15.2352 17.9862C14.7985 17.4375 14.5801 16.4334 14.5801 14.9739V10.303C14.5801 8.84907 14.7985 7.84916 15.2352 7.30324C15.672 6.75733 16.4467 6.48438 17.5594 6.48438C18.6777 6.48438 19.4497 6.69189 19.8753 7.10687C20.3009 7.5219 20.5137 8.28924 20.5137 9.4089Z" fill="white"/>
</svg>
