<svg width="30" height="26" viewBox="0 0 30 26" fill="none" xmlns="http://www.w3.org/2000/svg">
<path d="M0 7C0 3.13401 3.13401 0 7 0H23C26.866 0 30 3.13401 30 7V19C30 22.866 26.866 26 23 26H7C3.13401 26 0 22.866 0 19V7Z" fill="#B8B8B8"/>
<path d="M16.25 16.75H13.75V19.25H16.25V16.75Z" fill="white"/>
<path fill-rule="evenodd" clip-rule="evenodd" d="M15 9C13.8048 9 13 10.0858 13 11H11C11 9.19752 12.4957 7 15 7C17.4955 7 19 9.14203 19 11C19 12.5781 17.8917 13.3782 17.2062 13.8732C17.1659 13.9023 17.1271 13.9303 17.09 13.9574C16.3354 14.5088 16 14.8231 16 15.5H14C14 13.7382 15.1612 12.8897 15.9067 12.345L15.91 12.3426C16.7425 11.7343 17 11.5038 17 11C17 10.0498 16.2039 9 15 9Z" fill="white"/>
</svg>
