<svg width="30" height="26" viewBox="0 0 30 26" fill="none" xmlns="http://www.w3.org/2000/svg">
<path d="M0 7C0 3.13401 3.13401 0 7 0H23C26.866 0 30 3.13401 30 7V19C30 22.866 26.866 26 23 26H7C3.13401 26 0 22.866 0 19V7Z" fill="#DD071F"/>
<path d="M6.60308 7.18945L5.00391 18.7793H8.26086L8.44909 16.6958H9.57602C9.63745 17.5092 9.67145 17.9658 9.73288 18.7793H12.9527L11.1521 7.18945H6.60308ZM9.00884 9.78122C9.16777 11.7093 9.3271 13.3298 9.48603 14.6419H8.41111C8.49058 13.6162 8.68928 11.9957 9.00884 9.78122Z" fill="white"/>
<path d="M17.0376 18.8282L16.9785 18.8391L16.9486 18.8387H16.9407H16.9018H16.8967C16.5834 18.8387 16.2604 18.8391 15.9098 18.8391C15.588 18.8391 15.2448 18.8391 14.8621 18.8387H14.8565H14.8238H14.82H14.7941L14.736 18.8278L14.7265 18.7558L14.7269 18.7094C14.7265 16.365 14.7265 13.9808 14.7265 11.6758V10.2087C14.3314 10.6037 13.8472 10.9043 13.3112 11.0882L13.2994 11.0025L13.2998 10.9818V10.4553V10.4524C13.2998 10.0133 13.2998 9.55933 13.2969 9.11305L13.3189 9.02084L13.3916 8.95756C13.8176 8.72078 14.1975 8.41253 14.512 8.04753C14.7025 7.82439 14.8597 7.5756 14.977 7.30937L15.0209 7.24989L15.0942 7.23242H15.0946C15.4288 7.23365 15.7619 7.23406 16.1593 7.23406H16.3605H16.9562C17.0441 7.23406 17.0441 7.2357 17.0464 7.31971V7.365V7.36541V7.38615V9.31586C17.0464 12.3886 17.0464 15.5649 17.046 18.6895L17.0464 18.7489L17.0376 18.8282Z" fill="white"/>
<path d="M22.0451 7C21.8664 7 21.6857 7.00683 21.5076 7.02156C21.1757 7.04395 20.8474 7.11039 20.5334 7.21896C20.2736 7.30898 20.0348 7.44992 19.8325 7.63214C19.633 7.81764 19.4779 8.04319 19.3776 8.29307C19.3043 8.4682 19.2452 8.64841 19.2001 8.83172C19.0716 9.38603 19.0104 9.95221 19.016 10.5196C19.0139 11.4575 19.0135 12.4123 19.0135 13.3343V13.3376C19.0135 13.9481 19.0132 14.5793 19.0126 15.2029C19.0059 15.6999 19.0374 16.1965 19.1067 16.6886C19.1558 17.0607 19.2565 17.4243 19.4064 17.7691C19.5017 17.9841 19.6388 18.1803 19.8101 18.3461C19.9826 18.5098 20.1852 18.6402 20.4079 18.7313C20.6265 18.8208 20.8548 18.8865 21.0881 18.9263C21.3823 18.9776 21.68 19.002 21.9781 18.9999C22.1224 18.9999 22.2734 18.9948 22.4396 18.9855C22.611 18.9762 22.7824 18.9558 22.9515 18.9247C23.1211 18.8931 23.2878 18.8491 23.4502 18.7929C23.7201 18.7023 23.9676 18.5578 24.1767 18.3685C24.3824 18.1759 24.5419 17.9411 24.644 17.682C24.6986 17.5478 24.7454 17.4109 24.7843 17.2712C24.9139 16.7709 24.9839 16.2587 24.9924 15.7432C25.0064 15.2892 25.0039 14.8276 25.0022 14.3813C25.0018 14.2444 25.0006 14.103 25.0006 13.9634C25.0027 13.6928 24.9838 13.4222 24.9461 13.1538C24.9083 12.8559 24.8244 12.5651 24.6976 12.2907C24.608 12.103 24.4811 11.9337 24.3227 11.7952C24.1627 11.6588 23.9728 11.5579 23.7688 11.4995C23.5473 11.4335 23.3157 11.4009 23.0835 11.4004C22.8981 11.4008 22.7124 11.4215 22.532 11.4619C22.1449 11.5476 21.8117 11.7532 21.5141 12.0909L21.4398 12.1748L21.4249 12.0893L21.4258 12.0701V10.7195V10.7107V9.74444C21.4236 9.55185 21.4324 9.35892 21.4538 9.16743C21.4651 9.0043 21.503 8.84358 21.5645 8.69191C21.6315 8.54678 21.7287 8.46294 21.86 8.43457L22.0119 8.41697C22.2312 8.41697 22.3895 8.5343 22.4594 8.74544C22.4988 8.88074 22.523 9.02 22.532 9.16022C22.554 9.38881 22.5571 9.61261 22.5576 9.86031C22.5576 9.97106 22.5589 9.97219 22.6666 9.97219H23.7745H24.885L24.9749 9.95943C24.9885 9.94633 24.9881 9.91746 24.9881 9.86672C24.9886 9.59939 24.9735 9.33189 24.9419 9.06673C24.9098 8.75684 24.8337 8.4531 24.7165 8.16285C24.6354 7.96426 24.5142 7.78284 24.3615 7.62899C24.2048 7.47787 24.0196 7.3581 23.815 7.27735C23.5456 7.17151 23.2636 7.09918 22.9745 7.06317C22.6668 7.02116 22.356 7.00058 22.0449 7.00003L22.0451 7ZM21.9972 13.0874L22.0311 13.089C22.1201 13.089 22.2071 13.1143 22.2804 13.1634C22.3531 13.213 22.4087 13.2824 22.4397 13.3632C22.4927 13.5056 22.5226 13.6548 22.5305 13.8059V13.8084C22.5491 13.995 22.5575 14.1994 22.557 14.4525C22.5565 14.7018 22.557 14.9558 22.557 15.2014V15.2046C22.557 15.5598 22.5567 15.9269 22.5561 16.2875C22.5595 16.5543 22.5366 16.8213 22.4876 17.0843C22.4735 17.1607 22.4487 17.2353 22.4149 17.3057C22.3794 17.3843 22.3207 17.4514 22.2457 17.4967C22.1707 17.5425 22.084 17.5655 21.9955 17.5622L21.9699 17.5614C21.7546 17.5532 21.6089 17.4549 21.5357 17.2705C21.4906 17.1401 21.4635 17.0055 21.4539 16.8685C21.4325 16.6508 21.4222 16.4322 21.425 16.214V15.6138V15.613V15.346H21.4292V15.0016C21.4288 14.7315 21.428 14.4529 21.4309 14.1784C21.4326 13.9706 21.455 13.7634 21.4978 13.5599C21.5142 13.4764 21.5434 13.3951 21.5845 13.3193C21.6222 13.2462 21.6813 13.185 21.7546 13.1435C21.8278 13.102 21.9122 13.0832 21.9973 13.0875L21.9972 13.0874Z" fill="white"/>
</svg>
