<svg width="30" height="26" viewBox="0 0 30 26" fill="none" xmlns="http://www.w3.org/2000/svg">
<path d="M0 7C0 3.13401 3.13401 0 7 0H23C26.866 0 30 3.13401 30 7V19C30 22.866 26.866 26 23 26H7C3.13401 26 0 22.866 0 19V7Z" fill="black"/>
<path d="M6.64261 7.24316L5 18.9996H8.34542L8.53792 16.8865H9.69632C9.75942 17.7113 9.79434 18.1742 9.85744 18.9996H13.1647L11.316 7.24316H6.64261ZM9.11373 9.87205C9.27756 11.8274 9.4409 13.4714 9.60473 14.8028H8.49976C8.58197 13.7621 8.78607 12.1182 9.11373 9.87205Z" fill="white"/>
<path d="M16.9842 18.8806C16.9842 18.956 16.9639 18.9716 16.8887 18.971C16.1714 18.9681 15.4547 18.9681 14.7374 18.9715C14.646 18.9719 14.6211 18.9514 14.6211 18.8604C14.6246 16.0205 14.625 13.1801 14.6241 10.3403V10.2102C14.4203 10.4134 14.1934 10.5931 13.9474 10.7465C13.7036 10.8966 13.4426 11.0188 13.1687 11.1098V10.9971C13.1687 10.3687 13.1709 9.74038 13.167 9.11147L13.189 9.01158L13.2666 8.94238C13.9399 8.55734 14.4968 8.06013 14.8308 7.36425C14.8962 7.22753 14.9697 7.18679 15.1226 7.18959C15.7096 7.20017 16.2972 7.19574 16.8842 7.19168C16.9658 7.19126 16.9844 7.2129 16.9844 7.28934C16.9822 11.1532 16.9822 15.0165 16.9844 18.8804" fill="white"/>
<path d="M22.0312 7.0005C21.6345 6.99518 21.237 7.03268 20.8466 7.11248C19.8815 7.30222 19.2875 7.86574 19.0861 8.80213C18.9373 9.4941 18.9379 10.194 19.0114 10.8899C19.0879 11.6086 19.4821 12.1476 20.1444 12.497C20.2897 12.5678 20.4412 12.6269 20.5964 12.6743L20.4989 12.7054C19.8609 12.9046 19.3963 13.2899 19.1386 13.8931C18.9991 14.2302 18.9278 14.5893 18.9283 14.9525C18.9231 15.3995 18.9237 15.8461 18.9301 16.2931C18.9305 16.6653 18.9844 17.0365 19.0904 17.3942C19.2617 17.9556 19.5837 18.3991 20.1453 18.658C20.5077 18.8198 20.8972 18.918 21.2943 18.9498C21.9647 19.0145 22.6291 18.9993 23.2821 18.828C23.9884 18.6422 24.505 18.2449 24.7678 17.5708C24.9201 17.1623 24.9974 16.7316 24.9968 16.298C25.0032 15.8907 24.997 15.482 24.9994 15.0735C25.0029 14.8442 24.9826 14.6145 24.9375 14.3885C24.8246 13.8366 24.5642 13.3682 24.0878 13.0266C23.8591 12.8682 23.6048 12.7502 23.3339 12.676L23.4043 12.649C24.3224 12.3817 24.845 11.6242 24.918 10.7877C24.9504 10.4221 24.9367 10.0554 24.9315 9.68984C24.9276 9.37232 24.8885 9.05649 24.8162 8.74733C24.6153 7.90191 24.0978 7.35167 23.2126 7.14352C22.8241 7.05312 22.4281 7.00577 22.0313 7.00047L22.0312 7.0005ZM21.9083 8.41466C21.9818 8.41023 22.0612 8.42098 22.144 8.44735C22.3212 8.50427 22.4095 8.63727 22.4552 8.79966C22.538 9.09263 22.5387 9.39479 22.5485 9.69558C22.5537 9.84402 22.5503 9.99234 22.5503 10.1419C22.5507 10.5236 22.5559 10.906 22.4968 11.2855C22.487 11.3491 22.4738 11.4126 22.457 11.4751C22.3684 11.7949 22.1054 11.9322 21.776 11.8356C21.5925 11.7815 21.4964 11.6543 21.4495 11.4858C21.3945 11.272 21.3681 11.0525 21.3698 10.8326C21.3646 10.3795 21.3646 9.92554 21.3698 9.47242C21.3698 9.25534 21.3963 9.03947 21.4495 8.82909C21.5173 8.57546 21.6877 8.42793 21.9083 8.41466ZM21.9651 13.594C21.9827 13.5939 22.001 13.5939 22.0194 13.5948C22.2862 13.6087 22.4459 13.7262 22.5188 13.9667C22.6022 14.2402 22.6086 14.5217 22.6155 14.803C22.6225 15.0485 22.6173 15.295 22.6173 15.6466C22.612 15.9072 22.6305 16.2732 22.5986 16.6381C22.5876 16.8027 22.5606 16.9657 22.5172 17.1253C22.4292 17.4227 22.2418 17.5547 21.9193 17.5463C21.6397 17.5385 21.4556 17.382 21.3885 17.0918C21.3329 16.8317 21.3067 16.567 21.3113 16.3013C21.31 15.6992 21.2901 15.0972 21.3283 14.4956C21.3322 14.2981 21.3699 14.1027 21.4394 13.9169C21.5316 13.6971 21.7014 13.5941 21.9651 13.594L21.9651 13.594Z" fill="white"/>
</svg>
