<svg width="30" height="26" viewBox="0 0 30 26" fill="none" xmlns="http://www.w3.org/2000/svg">
<path d="M0 7C0 3.13401 3.13401 0 7 0H23C26.866 0 30 3.13401 30 7V19C30 22.866 26.866 26 23 26H7C3.13401 26 0 22.866 0 19V7Z" fill="#338933"/>
<path d="M12.1785 7.69017C13.1573 7.67316 14.1374 7.68744 15.1169 7.68404C15.1427 10.5578 15.1244 13.433 15.1257 16.3068C16.7018 16.3149 18.2779 16.2945 19.8533 16.317C19.873 17 19.8615 17.6845 19.8588 18.3682C17.2985 18.3778 14.7381 18.3703 12.1778 18.3709C12.1731 14.8107 12.1717 11.2504 12.1785 7.69017Z" fill="white"/>
</svg>
