<svg width="30" height="26" viewBox="0 0 30 26" fill="none" xmlns="http://www.w3.org/2000/svg">
<path d="M0 7C0 3.13401 3.13401 0 7 0H23C26.866 0 30 3.13401 30 7V19C30 22.866 26.866 26 23 26H7C3.13401 26 0 22.866 0 19V7Z" fill="#FECC15"/>
<path d="M6.61999 7.19434L5 18.9845H8.30065L8.49016 16.866H9.63305C9.6949 17.6934 9.72996 18.1571 9.79181 18.9845H13.0551L11.2306 7.19434H6.61999ZM9.05703 9.83074C9.21932 11.7923 9.38073 13.4412 9.54245 14.7761H8.45276C8.53333 13.7325 8.73474 12.0837 9.05703 9.83074Z" fill="white"/>
<path d="M16.6577 18.9991C15.9876 18.9996 15.318 19.0004 14.6479 18.9991H14.5786C14.4941 18.9971 14.4935 18.9962 14.4913 18.9185V18.8162V10.2521L14.472 10.2387C14.0748 10.6341 13.5913 10.9349 13.0568 11.1189V11.0016C13.0568 10.3716 13.0585 9.74167 13.0547 9.11116L13.0785 9.0122L13.1563 8.94381C13.5983 8.69583 13.9898 8.3689 14.3098 7.98081C14.4863 7.76564 14.6321 7.52822 14.7416 7.27468L14.7904 7.21019L14.8699 7.19238C15.4861 7.19447 16.1023 7.19363 16.718 7.19405C16.8207 7.19405 16.8207 7.19531 16.8224 7.29191V7.35974C16.8224 11.1851 16.8224 15.0104 16.822 18.8362C16.822 19.0208 16.8486 18.9986 16.658 18.9991" fill="white"/>
<path d="M24.9995 18.8625V18.9303C25.0029 18.9764 24.987 19.0026 24.9354 18.9998H24.8662H18.6744C18.5206 18.9998 18.536 19.0081 18.536 18.8664C18.5355 18.2214 18.5372 17.5764 18.5343 16.9309C18.5326 16.8486 18.5569 16.768 18.6058 16.7007C19.5414 15.3669 20.4749 14.0319 21.4077 12.6964C21.7067 12.2799 21.9553 11.8296 22.1459 11.3553C22.2912 11.0011 22.3632 10.6219 22.357 10.24C22.3496 9.99865 22.3519 9.75679 22.3473 9.51548C22.3452 9.3042 22.3218 9.09347 22.277 8.8872L22.2532 8.7999C22.1448 8.45685 21.848 8.40347 21.6063 8.45907C21.4366 8.49689 21.3402 8.61753 21.2823 8.76988C21.2307 8.92389 21.1994 9.08458 21.1892 9.24637C21.1563 9.5733 21.1666 9.9019 21.1648 10.2305L21.1644 10.3211L21.1077 10.374L21.0265 10.3744H18.8658H18.8312C18.7222 10.3731 18.7222 10.3731 18.7217 10.2698C18.7178 10.0474 18.7296 9.82504 18.745 9.60264C18.7648 9.24846 18.8244 8.89762 18.9237 8.55624C18.9628 8.42613 19.0116 8.29881 19.0684 8.17537C19.2795 7.71556 19.6398 7.41698 20.1159 7.24295C20.4092 7.13898 20.7145 7.07115 21.0249 7.04057C21.4499 6.99442 21.8783 6.98775 22.3044 7.02001C22.705 7.04224 23.0994 7.12343 23.4744 7.26132C23.7088 7.34639 23.9204 7.47983 24.0969 7.65219C24.2739 7.82455 24.4101 8.03194 24.4981 8.26101C24.6274 8.59629 24.7114 8.94713 24.7477 9.30352C24.796 9.73498 24.8102 10.1692 24.7909 10.6029C24.7693 11.2768 24.5928 11.9368 24.2768 12.535C24.0992 12.8658 23.8989 13.1839 23.677 13.4875C22.814 14.6873 21.9515 15.8866 21.089 17.0865C21.0652 17.1198 21.043 17.1537 21.0067 17.2071H21.1588H24.8556C25.0127 17.2071 24.9997 17.1921 24.9997 17.3456C25.0001 17.851 25.0001 18.3564 24.9997 18.8623" fill="white"/>
</svg>
