<svg width="30" height="26" viewBox="0 0 30 26" fill="none" xmlns="http://www.w3.org/2000/svg">
<path d="M0 7C0 3.13401 3.13401 0 7 0H23C26.866 0 30 3.13401 30 7V19C30 22.866 26.866 26 23 26H7C3.13401 26 0 22.866 0 19V7Z" fill="#EC6A14"/>
<path d="M6.71144 7L5.12891 18.9826H8.35332L8.53864 16.8286H9.65544C9.71648 17.6701 9.75046 18.141 9.8115 18.9826H12.9993L11.216 7H6.71144ZM9.09298 9.67917C9.25112 11.6727 9.40926 13.3477 9.56684 14.7045H8.50125C8.5806 13.6435 8.7778 11.9685 9.09298 9.67917Z" fill="white"/>
<path d="M16.6828 7.06902V7.08543V18.9167V18.9371V18.9375L16.6756 18.9923L16.6351 18.9997H14.4639H14.4539C14.4028 18.998 14.4028 18.998 14.4017 18.9443V18.9069V18.8894V10.1004L14.3895 10.0924C14.197 10.2921 13.9823 10.4696 13.7503 10.6212C13.5184 10.7716 13.2703 10.8949 13.0112 10.9888L13.0007 10.9679L12.9994 10.9442V10.934V10.326V10.3226C12.9994 9.85604 12.9994 9.37306 12.999 8.89856L13.0101 8.84766L13.0484 8.81258C13.4291 8.59428 13.7736 8.3166 14.07 7.98914C14.3174 7.71655 14.5161 7.40267 14.6587 7.06108L14.6914 7.01357L14.7464 7H14.7476C15.1388 7.00127 15.5278 7.00127 15.8563 7.00127H16.612H16.6237H16.6342H16.6464H16.6519L16.6641 7.00254L16.6758 7.00933L16.6819 7.0229L16.6831 7.03703L16.6828 7.06902Z" fill="white"/>
<path d="M20.5085 7.00098L20.4613 7.04737V7.04822L20.4516 7.08219C20.0743 8.33375 19.6898 9.60605 19.3185 10.8367L19.3047 10.8839C18.9729 11.9828 18.6295 13.1195 18.2871 14.254L18.2676 14.3882C18.268 14.7603 18.2676 15.1388 18.2676 15.5041V15.5157V16.2787V16.3077L18.2741 16.3607L18.3082 16.3682H18.3253H18.3529H20.541H21.3782H21.3961H21.4131L21.4326 16.3673H21.4368L21.4498 16.3681L21.4604 16.3748L21.4669 16.3897L21.4677 16.4046V16.4419V16.4601V18.9007V18.919L21.4669 18.9562L21.4677 18.9736L21.4742 18.9894L21.4872 18.9976L21.5034 19.0002H21.5116L21.5237 18.9993H21.5343H21.5449H23.6501L23.7005 18.9911L23.7062 18.9438V18.9165V17.6821V17.6639V16.4477V16.4229L23.7127 16.3748L23.7516 16.3674H23.7866H24.4279H25.0692C25.128 16.3674 25.1286 16.3671 25.1286 16.3077V14.6376C25.1286 14.5771 25.1277 14.5774 25.0765 14.5763H25.0603H24.3035H23.7882H23.75L23.7126 14.5688L23.7061 14.5183V14.4909V11.5599V10.7936V7.07554V7.06146L23.6997 7.00762L23.6622 7.00101H22.3073H20.5614H20.5305H20.5263L20.5085 7.00098ZM21.618 8.74733L21.6399 8.74818L21.6594 8.7581C21.6733 8.77223 21.6725 8.80183 21.6708 8.85668C21.662 9.24805 21.6523 9.64627 21.644 10.0314V10.0446V10.0521C21.6312 10.5803 21.6188 11.1267 21.6066 11.6634C21.5999 11.966 21.5932 12.2737 21.5871 12.5706V12.5723C21.5826 12.7826 21.5785 13.0005 21.5741 13.216C21.5669 13.5378 21.5588 13.8606 21.5522 14.1728C21.5493 14.2814 21.5468 14.3898 21.5441 14.4984V14.51L21.5432 14.5332L21.5424 14.5506L21.5351 14.568L21.5229 14.5755L21.5091 14.5772L21.4993 14.5763L21.4847 14.5755L21.4717 14.5763H21.4709H21.4587H20.0127L20.046 14.4479L20.0509 14.4297V14.4288C20.0814 14.3084 20.1103 14.194 20.1403 14.0792C20.5093 12.6597 20.881 11.2303 21.24 9.84754L21.5058 8.82442L21.5107 8.80703V8.80618L21.5196 8.7714L21.5286 8.75647L21.544 8.75151H21.5482L21.5579 8.75066L21.618 8.74733Z" fill="white"/>
</svg>
