<svg width="30" height="26" viewBox="0 0 30 26" fill="none" xmlns="http://www.w3.org/2000/svg">
<path d="M0 7C0 3.13401 3.13401 0 7 0H23C26.866 0 30 3.13401 30 7V19C30 22.866 26.866 26 23 26H7C3.13401 26 0 22.866 0 19V7Z" fill="#FFCC00"/>
<path fill-rule="evenodd" clip-rule="evenodd" d="M10.7163 7.13477H12.7337V19.0585H10.4328V10.193C10.2327 10.3991 10.016 10.5774 9.78258 10.7278C9.54916 10.8782 9.2935 11.0035 9.01562 11.1038V8.9647C9.42689 8.73075 9.77562 8.46056 10.0618 8.15418C10.3481 7.84781 10.5662 7.50801 10.7163 7.13477Z" fill="white"/>
<path fill-rule="evenodd" clip-rule="evenodd" d="M20.6011 10.1761V10.3516C20.6011 10.903 20.5205 11.4169 20.3594 11.8932C20.1982 12.3695 19.9259 12.8806 19.5424 13.4265L16.8581 17.2451H20.8012V19.0583H14.4238V16.8357L17.1999 12.7747C17.5222 12.3124 17.7681 11.8737 17.9376 11.4587C18.1071 11.0437 18.1919 10.6747 18.1919 10.3516V9.86692C18.1919 9.27088 18.1488 8.87676 18.0627 8.68456C17.9765 8.49238 17.8195 8.3963 17.5917 8.3963C17.3805 8.3963 17.2318 8.49656 17.1457 8.6971C17.0595 8.89765 17.0165 9.28758 17.0165 9.86692V10.3516H14.6072V10.1761C14.6072 8.95614 14.8268 8.1122 15.2658 7.64426C15.7049 7.17634 16.4885 6.9424 17.6167 6.94238C18.7393 6.94238 19.5174 7.17357 19.9509 7.63591C20.3844 8.09829 20.6011 8.945 20.6011 10.1761Z" fill="white"/>
</svg>
