<svg width="30" height="26" viewBox="0 0 30 26" fill="none" xmlns="http://www.w3.org/2000/svg">
<path d="M0 7C0 3.13401 3.13401 0 7 0H23C26.866 0 30 3.13401 30 7V19C30 22.866 26.866 26 23 26H7C3.13401 26 0 22.866 0 19V7Z" fill="black"/>
<path fill-rule="evenodd" clip-rule="evenodd" d="M10.8041 6.80664H12.8262V18.7304H10.5201V9.86487C10.3195 10.071 10.1023 10.2493 9.86832 10.3997C9.63436 10.5501 9.37813 10.6754 9.09961 10.7757V8.63657C9.51181 8.40262 9.86136 8.13244 10.1482 7.82605C10.4351 7.51968 10.6537 7.17988 10.8041 6.80664Z" fill="white"/>
<path fill-rule="evenodd" clip-rule="evenodd" d="M17.0873 14.8457V15.9905C17.0872 16.5977 17.1346 16.9946 17.2293 17.1812C17.324 17.3678 17.4939 17.4611 17.739 17.4611C17.9785 17.4611 18.1456 17.3566 18.2403 17.1477C18.335 16.9388 18.3823 16.5531 18.3823 15.9905V14.8457C18.3823 14.2441 18.3364 13.8514 18.2445 13.6675C18.1526 13.4837 17.9841 13.3918 17.739 13.3918C17.4939 13.3918 17.324 13.4907 17.2293 13.6884C17.1346 13.8862 17.0872 14.2719 17.0873 14.8457ZM17.1374 9.53977V10.1414C17.1374 10.7597 17.1805 11.1594 17.2669 11.3404C17.3532 11.5215 17.5106 11.612 17.739 11.612C17.9562 11.612 18.1066 11.5131 18.1902 11.3154C18.2737 11.1176 18.3155 10.7263 18.3155 10.1414V9.53977C18.3155 8.94374 18.2723 8.54961 18.186 8.35741C18.0996 8.16523 17.9451 8.06915 17.7223 8.06915C17.505 8.06915 17.3532 8.16941 17.2669 8.36995C17.1805 8.5705 17.1374 8.96043 17.1374 9.53977ZM16.3854 12.4476C15.884 12.3028 15.4899 12.034 15.2031 11.6412C14.9162 11.2485 14.7728 10.7764 14.7728 10.2249V9.53977C14.7728 8.50923 15.0053 7.76415 15.4704 7.30458C15.9356 6.84502 16.6917 6.61525 17.739 6.61523C18.7806 6.61523 19.5312 6.84365 19.9908 7.30041C20.4503 7.75721 20.6801 8.50365 20.6801 9.53977V10.2249C20.6801 10.7764 20.5394 11.2499 20.2582 11.6454C19.9769 12.0409 19.5855 12.3083 19.0842 12.4476C19.6245 12.6036 20.0367 12.8904 20.3208 13.3082C20.6049 13.726 20.747 14.2552 20.747 14.8959V16.0072C20.747 17.0377 20.5074 17.7842 20.0284 18.2465C19.5493 18.7089 18.7806 18.9401 17.7223 18.9401C16.6583 18.9401 15.8924 18.7117 15.4245 18.2549C14.9566 17.7981 14.7226 17.0488 14.7227 16.0072V14.8959C14.7226 14.2497 14.8633 13.7191 15.1446 13.3041C15.4259 12.8891 15.8395 12.6036 16.3854 12.4476Z" fill="white"/>
</svg>
