<svg width="30" height="26" viewBox="0 0 30 26" fill="none" xmlns="http://www.w3.org/2000/svg">
<path d="M0 7C0 3.13401 3.13401 0 7 0H23C26.866 0 30 3.13401 30 7V19C30 22.866 26.866 26 23 26H7C3.13401 26 0 22.866 0 19V7Z" fill="#0082CD"/>
<path d="M6.64199 7.14551L5 18.9268H8.34488L8.53607 16.8094H9.69502C9.75796 17.6365 9.79222 18.0997 9.85575 18.9268H13.1617L11.3133 7.14551H6.64199ZM9.11131 9.77957C9.27532 11.7396 9.4388 13.3863 9.60281 14.7207H8.498C8.58 13.6776 8.78445 12.0309 9.11131 9.77957Z" fill="white"/>
<path d="M16.9876 7.18587V18.8322V18.8662C16.9863 18.9165 16.9846 18.9176 16.9304 18.9198H16.8883H14.7215H14.6857C14.6251 18.9181 14.6251 18.9181 14.6239 18.8573V18.7959V10.2364L14.6181 10.1477L14.5552 10.1946C14.1798 10.5529 13.7311 10.8302 13.2368 11.0088C13.164 11.0356 13.1634 11.0351 13.1634 10.9608C13.1634 10.3011 13.163 9.64204 13.1621 8.98237L13.1765 8.9221L13.2239 8.88078C13.5935 8.67764 13.9307 8.42426 14.2247 8.12791C14.5042 7.84831 14.7277 7.52126 14.8854 7.16408L14.924 7.11218L14.9893 7.09766C15.6292 7.09933 16.2696 7.09891 16.9101 7.09891H16.9447L16.9875 7.13855L16.9876 7.18587Z" fill="white"/>
<path d="M21.8746 7.00043C21.645 7.00336 21.4151 7.02057 21.1877 7.05112C20.8857 7.08741 20.5916 7.16558 20.3121 7.28166C19.9703 7.42119 19.6801 7.6572 19.4797 7.95857C19.3561 8.15446 19.2594 8.36572 19.1929 8.58561C19.1242 8.80717 19.072 9.03288 19.0356 9.2617C18.9882 9.55582 18.9589 9.85233 18.9468 10.1503C18.9352 10.4082 18.9301 10.6661 18.9307 10.9245C18.9307 12.3415 18.931 13.7595 18.9316 15.1765C18.9316 15.4282 18.9403 15.6791 18.9536 15.9302C18.968 16.2299 19.0014 16.5283 19.0534 16.8246C19.1025 17.112 19.1814 17.3935 19.2894 17.6658C19.3859 17.9181 19.5377 18.1473 19.7352 18.337C19.9327 18.5268 20.1701 18.6725 20.4323 18.7646C20.7996 18.8952 21.1867 18.9702 21.5777 18.987C21.7891 19.0015 22.0008 19.0038 22.2122 18.9943C22.4489 18.9854 22.6858 18.9606 22.9185 18.9216C23.2165 18.873 23.5045 18.7776 23.7713 18.6403C24.0438 18.4991 24.2755 18.2925 24.4429 18.0403C24.544 17.8834 24.6279 17.7163 24.6908 17.5416C24.8161 17.1861 24.9 16.8176 24.9387 16.4437C24.9843 16.0368 25.0039 15.6273 24.9987 15.2182C24.9983 14.4748 24.9987 13.7322 24.9987 12.9888C24.9991 12.2476 25 11.5071 24.9987 10.766C24.9987 10.5455 24.9978 10.3258 24.9852 10.1054C24.9713 9.81686 24.9414 9.52947 24.8964 9.24373C24.8519 8.94459 24.7735 8.6503 24.6637 8.36734C24.5684 8.11062 24.4193 7.87629 24.2264 7.67817C23.9954 7.45884 23.7153 7.29427 23.4075 7.19828C22.9848 7.05709 22.5463 7.01324 22.1039 7.00208C22.0274 6.99999 21.9511 6.9996 21.8746 7.00043ZM21.9744 8.42783C22.187 8.42778 22.3704 8.52436 22.4532 8.75729L22.4845 8.85948C22.5163 9.00068 22.5365 9.14414 22.5463 9.28868C22.57 9.63247 22.5683 9.97713 22.5683 10.322L22.5674 12.9929C22.5674 13.9673 22.5683 14.9419 22.5683 15.9163C22.5687 16.139 22.5629 16.3613 22.5531 16.5834C22.5484 16.7721 22.522 16.9606 22.4752 17.1443L22.4262 17.2832C22.3159 17.5182 22.1207 17.599 21.8695 17.5677C21.6512 17.5404 21.5165 17.4188 21.4542 17.2178C21.4166 17.085 21.3932 16.9486 21.384 16.8107C21.3609 16.5361 21.3569 16.2605 21.3569 15.9842C21.3573 14.0175 21.3573 12.05 21.3569 10.0833C21.3569 9.85394 21.3571 9.62486 21.3721 9.39659C21.3791 9.2141 21.406 9.03231 21.4517 8.85539C21.4661 8.80405 21.4844 8.75434 21.5075 8.70579C21.5392 8.63212 21.5905 8.56765 21.6564 8.52021C21.7222 8.47221 21.8008 8.44248 21.8822 8.43355C21.9136 8.42978 21.9441 8.42787 21.9744 8.42783Z" fill="white"/>
</svg>
