<svg width="75" height="71" viewBox="0 0 75 71" fill="none" xmlns="http://www.w3.org/2000/svg">
<path d="M65.8281 3.1849C65.8281 2.56606 65.5823 1.97256 65.1447 1.53498C64.7071 1.0974 64.1136 0.851563 63.4948 0.851562H12.1615C11.5426 0.851563 10.9491 1.0974 10.5115 1.53498C10.074 1.97256 9.82812 2.56606 9.82812 3.1849V5.51823H65.8281V3.1849Z" fill="#7A7A7A"/>
<path d="M70.4447 12.5169C70.4447 11.8981 70.1988 11.3046 69.7613 10.867C69.3237 10.4294 68.7302 10.1836 68.1113 10.1836H7.44466C6.82582 10.1836 6.23233 10.4294 5.79475 10.867C5.35716 11.3046 5.11133 11.8981 5.11133 12.5169V14.8503H70.4447V12.5169Z" fill="#7A7A7A"/>
<path d="M70.446 19.5195H4.55268C3.38927 19.5195 2.2735 19.9817 1.45084 20.8044C0.628181 21.627 0.166016 22.7428 0.166016 23.9062V66.4662C0.166016 67.6296 0.628181 68.7454 1.45084 69.568C2.2735 70.3907 3.38927 70.8529 4.55268 70.8529H70.446C71.6094 70.8529 72.7252 70.3907 73.5479 69.568C74.3705 68.7454 74.8327 67.6296 74.8327 66.4662V23.9062C74.8327 22.7428 74.3705 21.627 73.5479 20.8044C72.7252 19.9817 71.6094 19.5195 70.446 19.5195ZM15.4727 27.5695C16.8572 27.5695 18.2105 27.9801 19.3617 28.7492C20.5128 29.5184 21.41 30.6117 21.9398 31.8907C22.4697 33.1698 22.6083 34.5773 22.3382 35.9352C22.0681 37.293 21.4014 38.5403 20.4224 39.5193C19.4435 40.4982 18.1962 41.1649 16.8383 41.435C15.4804 41.7051 14.073 41.5665 12.7939 41.0367C11.5148 40.5069 10.4216 39.6097 9.6524 38.4585C8.88323 37.3074 8.47268 35.954 8.47268 34.5695C8.47268 32.713 9.21018 30.9325 10.5229 29.6198C11.8357 28.307 13.6162 27.5695 15.4727 27.5695ZM65.4993 61.5195H9.49935L26.906 44.0895C27.2163 43.7818 27.6356 43.6091 28.0727 43.6091C28.5097 43.6091 28.9291 43.7818 29.2393 44.0895L37.826 52.6762L49.656 40.5195C49.9663 40.2118 50.3856 40.0391 50.8227 40.0391C51.2597 40.0391 51.6791 40.2118 51.9893 40.5195L65.4993 54.0295V61.5195Z" fill="#7A7A7A"/>
</svg>
