<svg width="62" height="81" viewBox="0 0 62 81" fill="none" xmlns="http://www.w3.org/2000/svg">
<path fill-rule="evenodd" clip-rule="evenodd" d="M61.7906 0.943147C62 1.31264 62 1.79634 62 2.76375V18.7496C60.4851 18.7496 59.2571 19.8536 59.2571 21.2154C59.2571 22.5772 60.4851 23.6812 62 23.6812L62 78.2362C62 79.2036 62 79.6872 61.7906 80.0567C61.6064 80.3819 61.3124 80.6459 60.9509 80.8118C60.5399 81 60.0018 81 58.9257 81L3.0743 81C1.99823 81 1.46016 81 1.04911 80.8118C0.687599 80.6459 0.39362 80.3819 0.209435 80.0567C-3.8147e-06 79.6872 0 79.2036 0 78.2362L0 23.6812C1.51485 23.6812 2.74292 22.5772 2.74292 21.2154C2.74292 19.8536 1.51485 18.7496 0 18.7496V2.76375C0 1.79634 -3.8147e-06 1.31264 0.209435 0.943147C0.39362 0.618123 0.687599 0.353875 1.04911 0.188269C1.46016 0 1.99823 0 3.0743 0L58.9257 0C60.0018 0 60.5399 0 60.9509 0.188269C61.3124 0.353875 61.6064 0.618123 61.7906 0.943147ZM53.8422 22.6112C52.9847 22.6112 52.2896 21.9862 52.2896 21.2154C52.2896 20.4446 52.9847 19.8196 53.8422 19.8196C54.6997 19.8196 55.3948 20.4446 55.3948 21.2154C55.3948 21.9862 54.6997 22.6112 53.8422 22.6112ZM46.8364 21.2154C46.8364 21.9862 47.5315 22.6112 48.389 22.6112C49.2464 22.6112 49.9416 21.9862 49.9416 21.2154C49.9416 20.4446 49.2464 19.8196 48.389 19.8196C47.5315 19.8196 46.8364 20.4446 46.8364 21.2154ZM42.5926 22.6112C41.7352 22.6112 41.0401 21.9862 41.0401 21.2154C41.0401 20.4446 41.7352 19.8196 42.5926 19.8196C43.4501 19.8196 44.1452 20.4446 44.1452 21.2154C44.1452 21.9862 43.4501 22.6112 42.5926 22.6112ZM35.2437 21.2154C35.2437 21.9862 35.9389 22.6112 36.7963 22.6112C37.6538 22.6112 38.3489 21.9862 38.3489 21.2154C38.3489 20.4446 37.6538 19.8196 36.7963 19.8196C35.9389 19.8196 35.2437 20.4446 35.2437 21.2154ZM31 22.6112C30.1425 22.6112 29.4474 21.9862 29.4474 21.2154C29.4474 20.4446 30.1425 19.8196 31 19.8196C31.8575 19.8196 32.5526 20.4446 32.5526 21.2154C32.5526 21.9862 31.8575 22.6112 31 22.6112ZM23.6511 21.2154C23.6511 21.9862 24.3462 22.6112 25.2037 22.6112C26.0612 22.6112 26.7563 21.9862 26.7563 21.2154C26.7563 20.4446 26.0612 19.8196 25.2037 19.8196C24.3462 19.8196 23.6511 20.4446 23.6511 21.2154ZM19.4074 22.6112C18.5499 22.6112 17.8548 21.9862 17.8548 21.2154C17.8548 20.4446 18.5499 19.8196 19.4074 19.8196C20.2648 19.8196 20.96 20.4446 20.96 21.2154C20.96 21.9862 20.2648 22.6112 19.4074 22.6112ZM12.0585 21.2154C12.0585 21.9862 12.7536 22.6112 13.611 22.6112C14.4685 22.6112 15.1636 21.9862 15.1636 21.2154C15.1636 20.4446 14.4685 19.8196 13.611 19.8196C12.7536 19.8196 12.0585 20.4446 12.0585 21.2154ZM7.8147 22.6112C6.95719 22.6112 6.26211 21.9862 6.26211 21.2154C6.26211 20.4446 6.95719 19.8196 7.8147 19.8196C8.67215 19.8196 9.36729 20.4446 9.36729 21.2154C9.36729 21.9862 8.67215 22.6112 7.8147 22.6112Z" fill="#040404"/>
</svg>
